<?xml version="1.0" encoding="utf-8"?>
<!-- Generator: Adobe Illustrator 16.0.4, SVG Export Plug-In . SVG Version: 6.00 Build 0)  -->
<!DOCTYPE svg PUBLIC "-//W3C//DTD SVG 1.1//EN" "http://www.w3.org/Graphics/SVG/1.1/DTD/svg11.dtd">
<svg version="1.1" id="Layer_1" xmlns="http://www.w3.org/2000/svg" xmlns:xlink="http://www.w3.org/1999/xlink" x="0px" y="0px"
	 width="612px" height="792px" viewBox="0 0 612 792" enable-background="new 0 0 612 792" xml:space="preserve">
<polygon fill="#E97A9A" points="226.487,146.746 358.928,145.645 292.885,167.604 "/>
<polygon fill="#E97A9A" points="254.444,292.782 226.688,341.707 128.987,253.944 "/>
<polygon fill="#E97A9A" points="380.144,344.447 342.457,292.422 469.924,239.748 "/>
<polygon fill="#FFF200" points="221,340.065 101.277,375.187 130.723,253.944 "/>
<polygon fill="#FFF200" points="487.884,372.654 381.966,341.714 468.609,241.878 "/>
<polygon fill="#E28036" points="103.947,378.399 218.33,341.707 192.916,459.112 "/>
<polygon fill="#E28036" points="371.284,345.887 487.884,374.777 404.565,461.311 "/>
<polygon fill="#E97A9A" points="249.125,467.856 192.876,467.386 222.074,339.34 "/>
<polygon fill="#E97A9A" points="406.708,471.564 350.623,475.864 368.861,345.805 "/>
<polygon fill="#E28036" points="194.392,467.856 314.497,470.041 253.632,513.665 "/>
<polygon fill="#E28036" points="290.6,470.596 410.646,474.933 349.145,513.68 "/>
<polygon fill="#FFF200" points="352.819,512.562 251.558,513.681 301.813,479.129 "/>
<polygon fill="#E4509C" points="297.075,446.012 249.045,470.596 225.947,366.263 "/>
<polygon fill="#E4509C" points="351.637,470.97 302.189,449.379 368.288,365.416 "/>
<polygon fill="#FFF200" points="348.008,468.94 246.747,470.06 297.119,446.012 "/>
<polygon fill="#E28036" points="271.796,403.599 332.582,405.795 300.71,445.612 "/>
<polygon fill="#E97A9A" points="311.561,400.409 302.044,383.802 368.434,356.786 "/>
<polygon fill="#E97A9A" points="295.633,383.97 287.953,398.896 227.388,358.298 "/>
<polygon fill="#E28036" points="287.153,335.097 290.153,352.781 231.883,353.573 "/>
<polygon fill="#E28036" points="303.924,356.747 307.235,337.128 364.582,356.895 "/>
<polygon fill="#E28036" points="101.277,249.565 131.08,251.384 110.262,347.485 "/>
<polygon fill="#E28036" points="469.395,244.146 499.25,243.775 485.528,341.144 "/>
<polygon fill="#E97A9A" points="262.227,301.787 331.142,300.462 297.384,337.571 "/>
<polygon fill="#FFF200" points="236.363,341.707 249.896,303.319 272.525,332.875 "/>
<polygon fill="#FFF200" points="345.873,302.713 355.296,342.312 320.262,329.729 "/>
<polygon fill="#E28036" points="323.715,293.476 271.041,295.369 294.117,203.762 "/>
<polygon fill="#E97A9A" points="244.387,700.459 144.396,685.161 222.485,509.21 "/>
<polygon fill="#E97A9A" points="456.536,694.674 355.846,702.393 391.531,507.277 "/>
<polygon fill="#E4509C" points="275.225,523.736 329.152,525.486 298.836,627.955 "/>
<polygon fill="#E28036" points="297.377,650.342 242.696,661.254 244.201,526.321 "/>
<polygon fill="#E28036" points="358.111,662.806 307.053,656.166 350.238,523.736 "/>
<polygon fill="#FFF200" points="116.358,248.289 137.767,147.021 144.215,201.281 "/>
<polygon fill="#FFF200" points="468.061,137.108 481.43,239.748 457.36,190.692 "/>
<polygon fill="#E28036" points="262.227,158.178 151.087,203.762 197.602,158.895 "/>
<polygon fill="#E28036" points="454.026,186.717 337.779,156.443 401.916,148.491 "/>
<polygon fill="#E4509C" points="163.116,122.774 205.751,146.999 151.087,193.582 "/>
<polygon fill="#E4509C" points="400.322,138.753 440.682,110.902 458.846,180.388 "/>
<polygon fill="#FFF200" points="391.862,137.257 208.162,136.568 300.172,95.016 "/>
<polygon fill="#E28036" points="169.908,117.771 226.267,100.858 206.326,136.768 "/>
<polygon fill="#E28036" points="379.468,97.309 433.947,119.542 395.877,134.964 "/>
<polygon fill="#E97A9A" points="272.567,106.936 212.826,130.557 231.824,91.247 "/>
<polygon fill="#E97A9A" points="383.577,131.771 328.114,99.356 370.767,90.033 "/>
<polygon fill="#E28036" points="236.17,93.248 295.633,89.459 266.898,106.995 "/>
<polygon fill="#E28036" points="300.883,86.513 346.545,97.781 320.908,103.518 "/>
</svg>
